<svg width="51" height="50" viewBox="0 0 51 50" fill="none" xmlns="http://www.w3.org/2000/svg">
  <ellipse cx="25.4844" cy="13.5" rx="1.5" ry="1.5" transform="rotate(180 25.4844 13.5)" fill="#EEEEEE"/>
  <ellipse cx="19.5" cy="13.5" rx="1.5" ry="1.5" transform="rotate(180 19.5 13.5)" fill="#EEEEEE"/>
  <ellipse cx="13.5" cy="13.5" rx="1.5" ry="1.5" transform="rotate(180 13.5 13.5)" fill="#EEEEEE"/>
  <ellipse cx="7.5" cy="13.5" rx="1.5" ry="1.5" transform="rotate(180 7.5 13.5)" fill="#EEEEEE"/>
  <ellipse cx="1.5" cy="13.5" rx="1.5" ry="1.5" transform="rotate(180 1.5 13.5)" fill="#EEEEEE"/>
  <ellipse cx="31.4844" cy="13.5" rx="1.5" ry="1.5" transform="rotate(180 31.4844 13.5)" fill="#EEEEEE"/>
  <ellipse cx="37.4844" cy="13.5" rx="1.5" ry="1.5" transform="rotate(180 37.4844 13.5)" fill="#EEEEEE"/>
  <ellipse cx="37.4844" cy="24.5" rx="1.5" ry="1.5" transform="rotate(180 37.4844 24.5)" fill="#EEEEEE"/>
  <ellipse cx="43.4844" cy="7.5" rx="1.5" ry="1.5" transform="rotate(180 43.4844 7.5)" fill="#EEEEEE"/>
  <ellipse cx="43.4844" cy="13.5" rx="1.5" ry="1.5" transform="rotate(180 43.4844 13.5)" fill="#EEEEEE"/>
  <ellipse cx="43.4844" cy="19.5" rx="1.5" ry="1.5" transform="rotate(180 43.4844 19.5)" fill="#EEEEEE"/>
  <ellipse cx="49.4844" cy="13.5" rx="1.5" ry="1.5" transform="rotate(180 49.4844 13.5)" fill="#EEEEEE"/>
  <ellipse cx="37.4844" cy="1.5" rx="1.5" ry="1.5" transform="rotate(180 37.4844 1.5)" fill="#EEEEEE"/>
  <ellipse cx="25.5" cy="36.5" rx="1.5" ry="1.5" fill="#EEEEEE"/>
  <ellipse cx="31.5" cy="36.5" rx="1.5" ry="1.5" fill="#EEEEEE"/>
  <ellipse cx="37.5" cy="36.5" rx="1.5" ry="1.5" fill="#EEEEEE"/>
  <ellipse cx="43.5" cy="36.5" rx="1.5" ry="1.5" fill="#EEEEEE"/>
  <ellipse cx="49.5" cy="36.5" rx="1.5" ry="1.5" fill="#EEEEEE"/>
  <ellipse cx="19.5" cy="36.5" rx="1.5" ry="1.5" fill="#EEEEEE"/>
  <ellipse cx="13.5" cy="36.5" rx="1.5" ry="1.5" fill="#EEEEEE"/>
  <ellipse cx="13.5" cy="25.5" rx="1.5" ry="1.5" fill="#EEEEEE"/>
  <ellipse cx="7.5" cy="42.5" rx="1.5" ry="1.5" fill="#EEEEEE"/>
  <ellipse cx="7.5" cy="36.5" rx="1.5" ry="1.5" fill="#EEEEEE"/>
  <ellipse cx="7.5" cy="30.5" rx="1.5" ry="1.5" fill="#EEEEEE"/>
  <ellipse cx="1.5" cy="36.5" rx="1.5" ry="1.5" fill="#EEEEEE"/>
  <ellipse cx="13.5" cy="48.5" rx="1.5" ry="1.5" fill="#EEEEEE"/>
</svg>
