<svg width="156" height="198" viewBox="0 0 156 198" fill="none" xmlns="http://www.w3.org/2000/svg">
  <ellipse cx="46.5625" cy="46.5" rx="4.5" ry="4.5" fill="#AFAFAF"/>
  <ellipse cx="67.5" cy="46.5" rx="4.5" ry="4.5" fill="#AFAFAF"/>
  <ellipse cx="88.5" cy="46.5" rx="4.5" ry="4.5" fill="#AFAFAF"/>
  <ellipse cx="109.5" cy="46.5" rx="4.5" ry="4.5" fill="#AFAFAF"/>
  <ellipse cx="130.5" cy="67.5" rx="4.5" ry="4.5" fill="#AFAFAF"/>
  <ellipse cx="151.5" cy="88.5" rx="4.5" ry="4.5" fill="#AFAFAF"/>
  <ellipse cx="25.5625" cy="46.5" rx="4.5" ry="4.5" fill="#AFAFAF"/>
  <ellipse cx="4.5" cy="46.5" rx="4.5" ry="4.5" fill="#AFAFAF"/>
  <ellipse cx="25.5" cy="25.5" rx="4.5" ry="4.5" fill="#AFAFAF"/>
  <ellipse cx="46.5" cy="4.5" rx="4.5" ry="4.5" fill="#AFAFAF"/>
  <ellipse cx="46.5" cy="88.5" rx="4.5" ry="4.5" fill="#AFAFAF"/>
  <ellipse cx="25.5" cy="67.5" rx="4.5" ry="4.5" fill="#AFAFAF"/>
  <ellipse cx="109.438" cy="151.5" rx="4.5" ry="4.5" transform="rotate(-180 109.438 151.5)" fill="#AFAFAF"/>
  <ellipse cx="88.5" cy="151.5" rx="4.5" ry="4.5" transform="rotate(-180 88.5 151.5)" fill="#AFAFAF"/>
  <ellipse cx="67.5" cy="151.5" rx="4.5" ry="4.5" transform="rotate(-180 67.5 151.5)" fill="#AFAFAF"/>
  <ellipse cx="46.5" cy="151.5" rx="4.5" ry="4.5" transform="rotate(-180 46.5 151.5)" fill="#AFAFAF"/>
  <ellipse cx="25.5" cy="130.5" rx="4.5" ry="4.5" transform="rotate(-180 25.5 130.5)" fill="#AFAFAF"/>
  <ellipse cx="4.5" cy="109.5" rx="4.5" ry="4.5" transform="rotate(-180 4.5 109.5)" fill="#AFAFAF"/>
  <ellipse cx="130.438" cy="151.5" rx="4.5" ry="4.5" transform="rotate(-180 130.438 151.5)" fill="#AFAFAF"/>
  <ellipse cx="151.5" cy="151.5" rx="4.5" ry="4.5" transform="rotate(-180 151.5 151.5)" fill="#AFAFAF"/>
  <ellipse cx="130.5" cy="172.5" rx="4.5" ry="4.5" transform="rotate(-180 130.5 172.5)" fill="#AFAFAF"/>
  <ellipse cx="109.5" cy="193.5" rx="4.5" ry="4.5" transform="rotate(-180 109.5 193.5)" fill="#AFAFAF"/>
  <ellipse cx="109.5" cy="109.5" rx="4.5" ry="4.5" transform="rotate(-180 109.5 109.5)" fill="#AFAFAF"/>
  <ellipse cx="130.5" cy="130.5" rx="4.5" ry="4.5" transform="rotate(-180 130.5 130.5)" fill="#AFAFAF"/>
</svg>
