<svg width="219" height="240" viewBox="0 0 219 240" fill="none" xmlns="http://www.w3.org/2000/svg">
  <ellipse cx="151.5" cy="235.5" rx="4.5" ry="4.5" transform="rotate(90 151.5 235.5)" fill="#AFAFAF"/>
  <ellipse cx="172.5" cy="235.5" rx="4.5" ry="4.5" transform="rotate(90 172.5 235.5)" fill="#AFAFAF"/>
  <ellipse cx="193.5" cy="235.5" rx="4.5" ry="4.5" transform="rotate(90 193.5 235.5)" fill="#AFAFAF"/>
  <ellipse cx="130.5" cy="235.5" rx="4.5" ry="4.5" transform="rotate(90 130.5 235.5)" fill="#AFAFAF"/>
  <ellipse cx="109.5" cy="235.5" rx="4.5" ry="4.5" transform="rotate(90 109.5 235.5)" fill="#AFAFAF"/>
  <ellipse cx="88.5" cy="235.5" rx="4.5" ry="4.5" transform="rotate(90 88.5 235.5)" fill="#AFAFAF"/>
  <ellipse cx="109.5" cy="214.5" rx="4.5" ry="4.5" transform="rotate(90 109.5 214.5)" fill="#AFAFAF"/>
  <ellipse cx="109.5" cy="193.5" rx="4.5" ry="4.5" transform="rotate(90 109.5 193.5)" fill="#AFAFAF"/>
  <ellipse cx="109.5" cy="172.5" rx="4.5" ry="4.5" transform="rotate(90 109.5 172.5)" fill="#AFAFAF"/>
  <ellipse cx="109.5" cy="4.5" rx="4.5" ry="4.5" transform="rotate(90 109.5 4.5)" fill="#AFAFAF"/>
  <ellipse cx="88.5" cy="4.5" rx="4.5" ry="4.5" transform="rotate(90 88.5 4.5)" fill="#AFAFAF"/>
  <ellipse cx="130.5" cy="4.5" rx="4.5" ry="4.5" transform="rotate(90 130.5 4.5)" fill="#AFAFAF"/>
  <ellipse cx="88.5" cy="172.5" rx="4.5" ry="4.5" transform="rotate(90 88.5 172.5)" fill="#AFAFAF"/>
  <ellipse cx="67.5" cy="25.5" rx="4.5" ry="4.5" transform="rotate(90 67.5 25.5)" fill="#AFAFAF"/>
  <ellipse cx="151.5" cy="172.5" rx="4.5" ry="4.5" transform="rotate(90 151.5 172.5)" fill="#AFAFAF"/>
  <ellipse cx="155.5" cy="46.5" rx="4.5" ry="4.5" transform="rotate(90 155.5 46.5)" fill="#AFAFAF"/>
  <ellipse cx="67.5" cy="172.5" rx="4.5" ry="4.5" transform="rotate(90 67.5 172.5)" fill="#AFAFAF"/>
  <ellipse cx="46.5" cy="172.5" rx="4.5" ry="4.5" transform="rotate(90 46.5 172.5)" fill="#AFAFAF"/>
  <ellipse cx="67.5" cy="46.5" rx="4.5" ry="4.5" transform="rotate(90 67.5 46.5)" fill="#AFAFAF"/>
  <ellipse cx="130.5" cy="172.5" rx="4.5" ry="4.5" transform="rotate(90 130.5 172.5)" fill="#AFAFAF"/>
  <ellipse cx="172.5" cy="172.5" rx="4.5" ry="4.5" transform="rotate(90 172.5 172.5)" fill="#AFAFAF"/>
  <ellipse cx="155.5" cy="25.5" rx="4.5" ry="4.5" transform="rotate(90 155.5 25.5)" fill="#AFAFAF"/>
  <ellipse cx="25.5" cy="151.5" rx="4.5" ry="4.5" transform="rotate(90 25.5 151.5)" fill="#AFAFAF"/>
  <ellipse cx="25.5" cy="88.5" rx="4.5" ry="4.5" transform="rotate(90 25.5 88.5)" fill="#AFAFAF"/>
  <ellipse cx="46.5" cy="67.5" rx="4.5" ry="4.5" transform="rotate(90 46.5 67.5)" fill="#AFAFAF"/>
  <ellipse cx="193.5" cy="151.5" rx="4.5" ry="4.5" transform="rotate(90 193.5 151.5)" fill="#AFAFAF"/>
  <ellipse cx="193.5" cy="88.5" rx="4.5" ry="4.5" transform="rotate(90 193.5 88.5)" fill="#AFAFAF"/>
  <ellipse cx="172.5" cy="67.5" rx="4.5" ry="4.5" transform="rotate(90 172.5 67.5)" fill="#AFAFAF"/>
  <ellipse cx="214.5" cy="130.5" rx="4.5" ry="4.5" transform="rotate(90 214.5 130.5)" fill="#AFAFAF"/>
  <ellipse cx="4.5" cy="130.5" rx="4.5" ry="4.5" transform="rotate(90 4.5 130.5)" fill="#AFAFAF"/>
  <ellipse cx="4.5" cy="109.5" rx="4.5" ry="4.5" transform="rotate(90 4.5 109.5)" fill="#AFAFAF"/>
  <ellipse cx="214.5" cy="109.5" rx="4.5" ry="4.5" transform="rotate(90 214.5 109.5)" fill="#AFAFAF"/>
  <ellipse cx="67.5" cy="235.5" rx="4.5" ry="4.5" transform="rotate(90 67.5 235.5)" fill="#AFAFAF"/>
  <ellipse cx="46.5" cy="235.5" rx="4.5" ry="4.5" transform="rotate(90 46.5 235.5)" fill="#AFAFAF"/>
  <ellipse cx="25.5" cy="235.5" rx="4.5" ry="4.5" transform="rotate(90 25.5 235.5)" fill="#AFAFAF"/>
</svg>
