<svg width="135" height="135" viewBox="0 0 135 135" fill="none" xmlns="http://www.w3.org/2000/svg">
<circle cx="130.5" cy="88.5" r="4.5" transform="rotate(-180 130.5 88.5)" fill="#AFAFAF"/>
<circle cx="130.5" cy="4.5" r="4.5" transform="rotate(-180 130.5 4.5)" fill="#AFAFAF"/>
<ellipse cx="67.5" cy="130.5" rx="4.5" ry="4.5" transform="rotate(90 67.5 130.5)" fill="#AFAFAF"/>
<ellipse cx="130.5" cy="130.5" rx="4.5" ry="4.5" transform="rotate(90 130.5 130.5)" fill="#AFAFAF"/>
<ellipse cx="4.5" cy="130.5" rx="4.5" ry="4.5" transform="rotate(90 4.5 130.5)" fill="#AFAFAF"/>
<ellipse cx="130.5" cy="109.5" rx="4.5" ry="4.5" transform="rotate(90 130.5 109.5)" fill="#AFAFAF"/>
<ellipse cx="46.5" cy="88.5" rx="4.5" ry="4.5" transform="rotate(90 46.5 88.5)" fill="#AFAFAF"/>
<ellipse cx="25.5" cy="88.5" rx="4.5" ry="4.5" transform="rotate(90 25.5 88.5)" fill="#AFAFAF"/>
<ellipse cx="25.5" cy="46.5" rx="4.5" ry="4.5" transform="rotate(90 25.5 46.5)" fill="#AFAFAF"/>
<ellipse cx="46.5" cy="46.5" rx="4.5" ry="4.5" transform="rotate(90 46.5 46.5)" fill="#AFAFAF"/>
<ellipse cx="67.5" cy="46.5" rx="4.5" ry="4.5" transform="rotate(90 67.5 46.5)" fill="#AFAFAF"/>
<ellipse cx="88.5" cy="46.5" rx="4.5" ry="4.5" transform="rotate(90 88.5 46.5)" fill="#AFAFAF"/>
<ellipse cx="67.5" cy="4.5" rx="4.5" ry="4.5" transform="rotate(90 67.5 4.5)" fill="#AFAFAF"/>
<ellipse cx="109.5" cy="46.5" rx="4.5" ry="4.5" transform="rotate(90 109.5 46.5)" fill="#AFAFAF"/>
<ellipse cx="67.5" cy="88.5" rx="4.5" ry="4.5" transform="rotate(90 67.5 88.5)" fill="#AFAFAF"/>
<ellipse cx="109.5" cy="88.5" rx="4.5" ry="4.5" transform="rotate(90 109.5 88.5)" fill="#AFAFAF"/>
<ellipse cx="88.5" cy="88.5" rx="4.5" ry="4.5" transform="rotate(90 88.5 88.5)" fill="#AFAFAF"/>
<ellipse cx="130.5" cy="67.5" rx="4.5" ry="4.5" transform="rotate(90 130.5 67.5)" fill="#AFAFAF"/>
<ellipse cx="4.5" cy="109.5" rx="4.5" ry="4.5" transform="rotate(90 4.5 109.5)" fill="#AFAFAF"/>
<ellipse cx="130.5" cy="46.5" rx="4.5" ry="4.5" transform="rotate(90 130.5 46.5)" fill="#AFAFAF"/>
<ellipse cx="130.5" cy="25.5" rx="4.5" ry="4.5" transform="rotate(90 130.5 25.5)" fill="#AFAFAF"/>
<ellipse cx="67.5" cy="25.5" rx="4.5" ry="4.5" transform="rotate(90 67.5 25.5)" fill="#AFAFAF"/>
<ellipse cx="67.5" cy="67.5" rx="4.5" ry="4.5" transform="rotate(90 67.5 67.5)" fill="#AFAFAF"/>
<ellipse cx="67.5" cy="109.5" rx="4.5" ry="4.5" transform="rotate(90 67.5 109.5)" fill="#AFAFAF"/>
<ellipse cx="4.5" cy="88.5" rx="4.5" ry="4.5" transform="rotate(90 4.5 88.5)" fill="#AFAFAF"/>
<ellipse cx="4.5" cy="67.5" rx="4.5" ry="4.5" transform="rotate(90 4.5 67.5)" fill="#AFAFAF"/>
<ellipse cx="4.5" cy="46.5" rx="4.5" ry="4.5" transform="rotate(90 4.5 46.5)" fill="#AFAFAF"/>
<ellipse cx="4.5" cy="25.5" rx="4.5" ry="4.5" transform="rotate(90 4.5 25.5)" fill="#AFAFAF"/>
<ellipse cx="4.5" cy="4.5" rx="4.5" ry="4.5" transform="rotate(90 4.5 4.5)" fill="#AFAFAF"/>
</svg>
