<svg width="177" height="177" viewBox="0 0 177 177" fill="none" xmlns="http://www.w3.org/2000/svg">
  <circle cx="172.5" cy="109.5" r="4.5" transform="rotate(-180 172.5 109.5)" fill="#AFAFAF"/>
  <circle cx="4.5" cy="109.5" r="4.5" transform="rotate(-180 4.5 109.5)" fill="#AFAFAF"/>
  <circle cx="172.5" cy="25.5" r="4.5" transform="rotate(-180 172.5 25.5)" fill="#AFAFAF"/>
  <circle cx="4.5" cy="25.5" r="4.5" transform="rotate(-180 4.5 25.5)" fill="#AFAFAF"/>
  <ellipse cx="172.5" cy="151.5" rx="4.5" ry="4.5" transform="rotate(90 172.5 151.5)" fill="#AFAFAF"/>
  <ellipse cx="4.5" cy="151.5" rx="4.5" ry="4.5" transform="rotate(90 4.5 151.5)" fill="#AFAFAF"/>
  <ellipse cx="151.562" cy="172.5" rx="4.5" ry="4.5" fill="#AFAFAF"/>
  <ellipse cx="151.562" cy="4.5" rx="4.5" ry="4.5" fill="#AFAFAF"/>
  <ellipse cx="172.5" cy="130.5" rx="4.5" ry="4.5" transform="rotate(90 172.5 130.5)" fill="#AFAFAF"/>
  <ellipse cx="4.5" cy="130.5" rx="4.5" ry="4.5" transform="rotate(90 4.5 130.5)" fill="#AFAFAF"/>
  <ellipse cx="172.5" cy="88.5" rx="4.5" ry="4.5" transform="rotate(90 172.5 88.5)" fill="#AFAFAF"/>
  <ellipse cx="4.5" cy="88.5" rx="4.5" ry="4.5" transform="rotate(90 4.5 88.5)" fill="#AFAFAF"/>
  <ellipse cx="130.562" cy="172.5" rx="4.5" ry="4.5" fill="#AFAFAF"/>
  <ellipse cx="130.562" cy="4.5" rx="4.5" ry="4.5" fill="#AFAFAF"/>
  <ellipse cx="172.5" cy="67.5" rx="4.5" ry="4.5" transform="rotate(90 172.5 67.5)" fill="#AFAFAF"/>
  <ellipse cx="4.5" cy="67.5" rx="4.5" ry="4.5" transform="rotate(90 4.5 67.5)" fill="#AFAFAF"/>
  <ellipse cx="172.5" cy="46.5" rx="4.5" ry="4.5" transform="rotate(90 172.5 46.5)" fill="#AFAFAF"/>
  <ellipse cx="4.5" cy="46.5" rx="4.5" ry="4.5" transform="rotate(90 4.5 46.5)" fill="#AFAFAF"/>
  <ellipse cx="109.562" cy="172.5" rx="4.5" ry="4.5" fill="#AFAFAF"/>
  <ellipse cx="109.562" cy="4.5" rx="4.5" ry="4.5" fill="#AFAFAF"/>
  <ellipse cx="88.5625" cy="172.5" rx="4.5" ry="4.5" fill="#AFAFAF"/>
  <ellipse cx="88.5625" cy="4.5" rx="4.5" ry="4.5" fill="#AFAFAF"/>
  <ellipse cx="67.5625" cy="172.5" rx="4.5" ry="4.5" fill="#AFAFAF"/>
  <ellipse cx="67.5625" cy="4.5" rx="4.5" ry="4.5" fill="#AFAFAF"/>
  <ellipse cx="46.5625" cy="172.5" rx="4.5" ry="4.5" fill="#AFAFAF"/>
  <ellipse cx="46.5625" cy="4.5" rx="4.5" ry="4.5" fill="#AFAFAF"/>
  <ellipse cx="25.5625" cy="172.5" rx="4.5" ry="4.5" fill="#AFAFAF"/>
  <ellipse cx="25.5625" cy="4.5" rx="4.5" ry="4.5" fill="#AFAFAF"/>
  <ellipse cx="46.5625" cy="88.5" rx="4.5" ry="4.5" transform="rotate(90 46.5625 88.5)" fill="#AFAFAF"/>
  <ellipse cx="67.5625" cy="109.5" rx="4.5" ry="4.5" transform="rotate(90 67.5625 109.5)" fill="#AFAFAF"/>
  <ellipse cx="88.5625" cy="88.5" rx="4.5" ry="4.5" transform="rotate(90 88.5625 88.5)" fill="#AFAFAF"/>
  <ellipse cx="109.562" cy="67.5" rx="4.5" ry="4.5" transform="rotate(90 109.562 67.5)" fill="#AFAFAF"/>
  <ellipse cx="130.562" cy="46.5" rx="4.5" ry="4.5" transform="rotate(90 130.562 46.5)" fill="#AFAFAF"/>
</svg>
