<svg width="33" height="39" viewBox="0 0 33 39" fill="none" xmlns="http://www.w3.org/2000/svg">
<ellipse cx="1.5" cy="31.5" rx="1.5" ry="1.5" transform="rotate(180 1.5 31.5)" fill="#EEEEEE"/>
<ellipse cx="1.5" cy="25.5" rx="1.5" ry="1.5" transform="rotate(180 1.5 25.5)" fill="#EEEEEE"/>
<ellipse cx="1.5" cy="19.5" rx="1.5" ry="1.5" transform="rotate(180 1.5 19.5)" fill="#EEEEEE"/>
<ellipse cx="7.5" cy="37.5" rx="1.5" ry="1.5" transform="rotate(180 7.5 37.5)" fill="#EEEEEE"/>
<ellipse cx="13.5" cy="37.5" rx="1.5" ry="1.5" transform="rotate(180 13.5 37.5)" fill="#EEEEEE"/>
<ellipse cx="31.5" cy="25.5" rx="1.5" ry="1.5" transform="rotate(180 31.5 25.5)" fill="#EEEEEE"/>
<ellipse cx="31.5" cy="31.5" rx="1.5" ry="1.5" transform="rotate(180 31.5 31.5)" fill="#EEEEEE"/>
<ellipse cx="19.5" cy="37.5" rx="1.5" ry="1.5" transform="rotate(180 19.5 37.5)" fill="#EEEEEE"/>
<ellipse cx="25.5" cy="37.5" rx="1.5" ry="1.5" transform="rotate(180 25.5 37.5)" fill="#EEEEEE"/>
<ellipse cx="31.5" cy="37.5" rx="1.5" ry="1.5" transform="rotate(180 31.5 37.5)" fill="#EEEEEE"/>
<ellipse cx="31.5" cy="19.5" rx="1.5" ry="1.5" transform="rotate(180 31.5 19.5)" fill="#EEEEEE"/>
<ellipse cx="25.5" cy="7.5" rx="1.5" ry="1.5" transform="rotate(180 25.5 7.5)" fill="#EEEEEE"/>
<ellipse cx="19.5" cy="1.5" rx="1.5" ry="1.5" transform="rotate(180 19.5 1.5)" fill="#EEEEEE"/>
<ellipse cx="25.5" cy="19.5" rx="1.5" ry="1.5" transform="rotate(180 25.5 19.5)" fill="#EEEEEE"/>
<ellipse cx="25.5" cy="13.5" rx="1.5" ry="1.5" transform="rotate(180 25.5 13.5)" fill="#EEEEEE"/>
<ellipse cx="1.5" cy="37.5" rx="1.5" ry="1.5" transform="rotate(180 1.5 37.5)" fill="#EEEEEE"/>
<ellipse cx="7.5" cy="13.5" rx="1.5" ry="1.5" transform="rotate(180 7.5 13.5)" fill="#EEEEEE"/>
<ellipse cx="7.5" cy="19.5" rx="1.5" ry="1.5" transform="rotate(180 7.5 19.5)" fill="#EEEEEE"/>
<ellipse cx="13.5" cy="19.5" rx="1.5" ry="1.5" transform="rotate(180 13.5 19.5)" fill="#EEEEEE"/>
<ellipse cx="19.5" cy="19.5" rx="1.5" ry="1.5" transform="rotate(180 19.5 19.5)" fill="#EEEEEE"/>
<ellipse cx="19.5" cy="1.5" rx="1.5" ry="1.5" transform="rotate(180 19.5 1.5)" fill="#EEEEEE"/>
<ellipse cx="13.5" cy="1.5" rx="1.5" ry="1.5" transform="rotate(180 13.5 1.5)" fill="#EEEEEE"/>
<ellipse cx="7.5" cy="7.5" rx="1.5" ry="1.5" transform="rotate(180 7.5 7.5)" fill="#EEEEEE"/>
</svg>
