<svg width="51" height="40" viewBox="0 0 51 40" fill="none" xmlns="http://www.w3.org/2000/svg">
<ellipse cx="7.5" cy="31.5" rx="1.5" ry="1.5" transform="rotate(180 7.5 31.5)" fill="#EEEEEE"/>
<ellipse cx="13.5" cy="31.5" rx="1.5" ry="1.5" transform="rotate(180 13.5 31.5)" fill="#EEEEEE"/>
<ellipse cx="19.5" cy="31.5" rx="1.5" ry="1.5" transform="rotate(180 19.5 31.5)" fill="#EEEEEE"/>
<ellipse cx="25.5" cy="31.5" rx="1.5" ry="1.5" transform="rotate(180 25.5 31.5)" fill="#EEEEEE"/>
<ellipse cx="49.5" cy="19.5" rx="1.5" ry="1.5" transform="rotate(180 49.5 19.5)" fill="#EEEEEE"/>
<ellipse cx="31.5" cy="31.5" rx="1.5" ry="1.5" transform="rotate(180 31.5 31.5)" fill="#EEEEEE"/>
<ellipse cx="37.5" cy="31.5" rx="1.5" ry="1.5" transform="rotate(180 37.5 31.5)" fill="#EEEEEE"/>
<ellipse cx="49.5" cy="25.5" rx="1.5" ry="1.5" transform="rotate(180 49.5 25.5)" fill="#EEEEEE"/>
<ellipse cx="43.5" cy="31.5" rx="1.5" ry="1.5" transform="rotate(180 43.5 31.5)" fill="#EEEEEE"/>
<ellipse cx="49.5" cy="31.5" rx="1.5" ry="1.5" transform="rotate(180 49.5 31.5)" fill="#EEEEEE"/>
<ellipse cx="1.5" cy="19.5" rx="1.5" ry="1.5" transform="rotate(180 1.5 19.5)" fill="#EEEEEE"/>
<ellipse cx="1.5" cy="25.5" rx="1.5" ry="1.5" transform="rotate(180 1.5 25.5)" fill="#EEEEEE"/>
<ellipse cx="1.5" cy="31.5" rx="1.5" ry="1.5" transform="rotate(180 1.5 31.5)" fill="#EEEEEE"/>
<ellipse cx="1.5" cy="13.5" rx="1.5" ry="1.5" transform="rotate(180 1.5 13.5)" fill="#EEEEEE"/>
<ellipse cx="49.5" cy="13.5" rx="1.5" ry="1.5" transform="rotate(180 49.5 13.5)" fill="#EEEEEE"/>
<ellipse cx="1.5" cy="7.5" rx="1.5" ry="1.5" transform="rotate(180 1.5 7.5)" fill="#EEEEEE"/>
<ellipse cx="7.5" cy="13.5" rx="1.5" ry="1.5" transform="rotate(180 7.5 13.5)" fill="#EEEEEE"/>
<ellipse cx="13.5" cy="13.5" rx="1.5" ry="1.5" transform="rotate(180 13.5 13.5)" fill="#EEEEEE"/>
<ellipse cx="19.5" cy="7.5" rx="1.5" ry="1.5" transform="rotate(180 19.5 7.5)" fill="#EEEEEE"/>
<ellipse cx="13.5" cy="7.5" rx="1.5" ry="1.5" transform="rotate(180 13.5 7.5)" fill="#EEEEEE"/>
<ellipse cx="7.5" cy="7.5" rx="1.5" ry="1.5" transform="rotate(180 7.5 7.5)" fill="#EEEEEE"/>
<ellipse cx="19.5" cy="13.5" rx="1.5" ry="1.5" transform="rotate(180 19.5 13.5)" fill="#EEEEEE"/>
<ellipse cx="49.5" cy="7.5" rx="1.5" ry="1.5" transform="rotate(180 49.5 7.5)" fill="#EEEEEE"/>
<ellipse cx="1.5" cy="1.5" rx="1.5" ry="1.5" transform="rotate(180 1.5 1.5)" fill="#EEEEEE"/>
<ellipse cx="7.5" cy="1.5" rx="1.5" ry="1.5" transform="rotate(180 7.5 1.5)" fill="#EEEEEE"/>
<ellipse cx="13.5" cy="1.5" rx="1.5" ry="1.5" transform="rotate(180 13.5 1.5)" fill="#EEEEEE"/>
<ellipse cx="19.5" cy="1.5" rx="1.5" ry="1.5" transform="rotate(180 19.5 1.5)" fill="#EEEEEE"/>
<ellipse cx="25.5" cy="1.5" rx="1.5" ry="1.5" transform="rotate(180 25.5 1.5)" fill="#EEEEEE"/>
<ellipse cx="31.5" cy="1.5" rx="1.5" ry="1.5" transform="rotate(180 31.5 1.5)" fill="#EEEEEE"/>
<ellipse cx="37.5" cy="1.5" rx="1.5" ry="1.5" transform="rotate(180 37.5 1.5)" fill="#EEEEEE"/>
<ellipse cx="43.5" cy="1.5" rx="1.5" ry="1.5" transform="rotate(180 43.5 1.5)" fill="#EEEEEE"/>
<ellipse cx="49.5" cy="1.5" rx="1.5" ry="1.5" transform="rotate(180 49.5 1.5)" fill="#EEEEEE"/>
</svg>
