<svg width="198" height="199" viewBox="0 0 198 199" fill="none" xmlns="http://www.w3.org/2000/svg">
  <circle cx="4.5" cy="151.5" r="4.5" transform="rotate(-180 4.5 151.5)" fill="#AFAFAF"/>
  <circle cx="4.5" cy="172.555" r="4.5" transform="rotate(-180 4.5 172.555)" fill="#AFAFAF"/>
  <circle cx="4.5" cy="46.5" r="4.5" transform="rotate(-180 4.5 46.5)" fill="#AFAFAF"/>
  <circle cx="4.5" cy="25.5" r="4.5" transform="rotate(-180 4.5 25.5)" fill="#AFAFAF"/>
  <circle cx="109.5" cy="151.5" r="4.5" transform="rotate(-180 109.5 151.5)" fill="#AFAFAF"/>
  <circle cx="172.5" cy="193.609" r="4.5" transform="rotate(-180 172.5 193.609)" fill="#AFAFAF"/>
  <circle cx="109.5" cy="46.5" r="4.5" transform="rotate(-180 109.5 46.5)" fill="#AFAFAF"/>
  <circle cx="172.5" cy="4.5" r="4.5" transform="rotate(-180 172.5 4.5)" fill="#AFAFAF"/>
  <ellipse cx="67.5" cy="151.5" rx="4.5" ry="4.5" transform="rotate(90 67.5 151.5)" fill="#AFAFAF"/>
  <ellipse cx="67.5" cy="46.5" rx="4.5" ry="4.5" transform="rotate(90 67.5 46.5)" fill="#AFAFAF"/>
  <ellipse cx="88.5" cy="151.5" rx="4.5" ry="4.5" transform="rotate(90 88.5 151.5)" fill="#AFAFAF"/>
  <ellipse cx="151.5" cy="193.609" rx="4.5" ry="4.5" transform="rotate(90 151.5 193.609)" fill="#AFAFAF"/>
  <ellipse cx="151.5" cy="130.5" rx="4.5" ry="4.5" transform="rotate(90 151.5 130.5)" fill="#AFAFAF"/>
  <ellipse cx="151.5" cy="109.5" rx="4.5" ry="4.5" transform="rotate(90 151.5 109.5)" fill="#AFAFAF"/>
  <ellipse cx="151.5" cy="88.5" rx="4.5" ry="4.5" transform="rotate(90 151.5 88.5)" fill="#AFAFAF"/>
  <ellipse cx="151.5" cy="67.5" rx="4.5" ry="4.5" transform="rotate(90 151.5 67.5)" fill="#AFAFAF"/>
  <ellipse cx="88.5" cy="46.5" rx="4.5" ry="4.5" transform="rotate(90 88.5 46.5)" fill="#AFAFAF"/>
  <ellipse cx="151.5" cy="4.5" rx="4.5" ry="4.5" transform="rotate(90 151.5 4.5)" fill="#AFAFAF"/>
  <ellipse cx="130.5" cy="151.5" rx="4.5" ry="4.5" transform="rotate(90 130.5 151.5)" fill="#AFAFAF"/>
  <ellipse cx="193.5" cy="151.5" rx="4.5" ry="4.5" transform="rotate(90 193.5 151.5)" fill="#AFAFAF"/>
  <ellipse cx="193.5" cy="172.555" rx="4.5" ry="4.5" transform="rotate(90 193.5 172.555)" fill="#AFAFAF"/>
  <ellipse cx="130.5" cy="46.5" rx="4.5" ry="4.5" transform="rotate(90 130.5 46.5)" fill="#AFAFAF"/>
  <ellipse cx="193.5" cy="46.5" rx="4.5" ry="4.5" transform="rotate(90 193.5 46.5)" fill="#AFAFAF"/>
  <ellipse cx="193.5" cy="25.5" rx="4.5" ry="4.5" transform="rotate(90 193.5 25.5)" fill="#AFAFAF"/>
  <ellipse cx="46.5" cy="193.609" rx="4.5" ry="4.5" transform="rotate(90 46.5 193.609)" fill="#AFAFAF"/>
  <ellipse cx="46.5" cy="130.5" rx="4.5" ry="4.5" transform="rotate(90 46.5 130.5)" fill="#AFAFAF"/>
  <ellipse cx="46.5" cy="109.5" rx="4.5" ry="4.5" transform="rotate(90 46.5 109.5)" fill="#AFAFAF"/>
  <ellipse cx="46.5" cy="88.5" rx="4.5" ry="4.5" transform="rotate(90 46.5 88.5)" fill="#AFAFAF"/>
  <ellipse cx="46.5" cy="67.5" rx="4.5" ry="4.5" transform="rotate(90 46.5 67.5)" fill="#AFAFAF"/>
  <ellipse cx="46.5" cy="4.5" rx="4.5" ry="4.5" transform="rotate(90 46.5 4.5)" fill="#AFAFAF"/>
  <ellipse cx="25.5" cy="193.609" rx="4.5" ry="4.5" transform="rotate(90 25.5 193.609)" fill="#AFAFAF"/>
  <ellipse cx="25.5" cy="4.5" rx="4.5" ry="4.5" transform="rotate(90 25.5 4.5)" fill="#AFAFAF"/>
</svg>
