<svg xmlns="http://www.w3.org/2000/svg" version="1.1" xmlns:xlink="http://www.w3.org/1999/xlink" width="32" height="32"><svg width="32" height="32" viewBox="0 0 32 32" fill="none" xmlns="http://www.w3.org/2000/svg">
<rect width="32" height="32" fill="#FFF313"></rect>
<path d="M13.9713 12.4C13.2356 12.4 12.6402 11.8701 12.6402 11.2051C12.6402 10.5402 12.0432 10 11.3092 10H5.96362C5.22794 10 4.63254 10.5387 4.63254 11.2051C4.63254 11.8716 4.03715 12.4103 3.30146 12.4103C2.56578 12.4103 1.96875 12.949 1.96875 13.6139V18.3846C1.96875 19.0495 2.56415 19.5897 3.29983 19.5897C4.03551 19.5897 4.63091 20.1284 4.63091 20.7949C4.63091 21.4613 5.22631 22 5.96199 22H11.3075C12.0432 22 12.6386 21.4613 12.6386 20.7949C12.6386 20.1284 13.234 19.5897 13.9697 19.5897C14.7054 19.5897 15.3008 19.0495 15.3008 18.3846V13.6051C15.3008 12.9402 14.707 12.4 13.9713 12.4ZM11.3124 19.6117L5.96362 19.6C5.23283 19.6 4.6407 19.0642 4.6407 18.4022L4.63581 13.5978C4.63581 12.9358 5.22794 12.4 5.95873 12.4H11.3075C12.0383 12.4 12.6304 12.9314 12.6304 13.5919L12.6353 18.4139C12.6353 19.076 12.0432 19.6117 11.3124 19.6117ZM28.6393 12.4C27.9036 12.4 27.3082 11.8701 27.3082 11.2051C27.3082 10.5402 26.7128 10 25.9771 10H25.9657C25.23 10 24.633 10.5372 24.633 11.1993C24.633 11.8613 25.23 12.3985 25.9657 12.3985H25.9771C26.7079 12.3985 27.3001 12.9299 27.3001 13.5919L27.305 18.4139C27.305 19.076 26.7128 19.6117 25.982 19.6117H25.8939L22.3705 10.7413C22.1699 10.3068 21.6935 10 21.1373 10H20.63C19.8943 10 19.2973 10.5372 19.2973 11.1993C19.2973 11.2081 19.2973 11.2154 19.2973 11.2242C19.2859 11.8804 18.6953 12.4103 17.9662 12.4103C17.237 12.4103 16.6351 12.949 16.6351 13.6154V18.3861C16.6351 19.051 17.2305 19.5912 17.9662 19.5912C18.7019 19.5912 19.2859 20.1196 19.2973 20.7772C19.2973 20.7861 19.2973 20.7934 19.2973 20.8007C19.2973 21.4628 19.8943 22 20.63 22C21.3657 22 21.9627 21.4628 21.9627 20.8007C21.9627 20.1387 21.3657 19.6015 20.63 19.6015C19.8992 19.6015 19.3071 19.0657 19.3071 18.4037L19.3022 13.5993C19.3022 12.9372 19.8943 12.4015 20.6251 12.4015H20.6284H20.7099L24.2203 21.2103C24.4063 21.6697 24.8973 22 25.4747 22H25.9641H25.9755C26.7112 22 27.3066 21.4613 27.3066 20.7963C27.3066 20.1314 27.902 19.5912 28.6377 19.5912C29.3734 19.5912 29.9688 19.051 29.9688 18.3861V13.6051C29.9688 12.9402 29.375 12.4 28.6393 12.4Z" fill="black"></path>
</svg><style>@media (prefers-color-scheme: light) { :root { filter: none; } }
@media (prefers-color-scheme: dark) { :root { filter: none; } }
</style></svg>