<svg width="201" height="153" viewBox="0 0 201 153" fill="none" xmlns="http://www.w3.org/2000/svg">
  <circle cx="100.5" cy="4.5" r="4.5" fill="#AFAFAF"/>
  <circle cx="100.5" cy="52.5" r="4.5" fill="#AFAFAF"/>
  <circle cx="100.5" cy="76.5" r="4.5" fill="#AFAFAF"/>
  <circle cx="100.5" cy="100.5" r="4.5" fill="#AFAFAF"/>
  <circle cx="100.5" cy="148.5" r="4.5" fill="#AFAFAF"/>
  <circle cx="76.5" cy="4.5" r="4.5" fill="#AFAFAF"/>
  <circle cx="76.5" cy="52.5" r="4.5" fill="#AFAFAF"/>
  <circle cx="76.5" cy="76.5" r="4.5" fill="#AFAFAF"/>
  <circle cx="76.5" cy="100.5" r="4.5" fill="#AFAFAF"/>
  <circle cx="76.5" cy="148.5" r="4.5" fill="#AFAFAF"/>
  <circle cx="52.5" cy="28.5" r="4.5" fill="#AFAFAF"/>
  <circle cx="52.5" cy="124.5" r="4.5" fill="#AFAFAF"/>
  <circle cx="28.5" cy="52.5" r="4.5" fill="#AFAFAF"/>
  <circle cx="28.5" cy="100.5" r="4.5" fill="#AFAFAF"/>
  <circle cx="4.5" cy="76.5" r="4.5" fill="#AFAFAF"/>
  <circle cx="124.5" cy="4.5" r="4.5" fill="#AFAFAF"/>
  <circle cx="124.5" cy="52.5" r="4.5" fill="#AFAFAF"/>
  <circle cx="124.5" cy="76.5" r="4.5" fill="#AFAFAF"/>
  <circle cx="124.5" cy="100.5" r="4.5" fill="#AFAFAF"/>
  <circle cx="124.5" cy="148.5" r="4.5" fill="#AFAFAF"/>
  <circle cx="148.5" cy="28.5" r="4.5" fill="#AFAFAF"/>
  <circle cx="148.5" cy="124.5" r="4.5" fill="#AFAFAF"/>
  <circle cx="172.5" cy="52.5" r="4.5" fill="#AFAFAF"/>
  <circle cx="172.5" cy="100.5" r="4.5" fill="#AFAFAF"/>
  <circle cx="196.5" cy="76.5" r="4.5" fill="#AFAFAF"/>
</svg>
