<svg width="40" height="50" viewBox="0 0 40 50" fill="none" xmlns="http://www.w3.org/2000/svg">
  <ellipse cx="13.5" cy="36.5" rx="1.5" ry="1.5" transform="rotate(180 13.5 36.5)" fill="#EEEEEE"/>
  <ellipse cx="26.5" cy="36.5" rx="1.5" ry="1.5" transform="rotate(180 26.5 36.5)" fill="#EEEEEE"/>
  <ellipse cx="7.5" cy="25.5" rx="1.5" ry="1.5" transform="rotate(180 7.5 25.5)" fill="#EEEEEE"/>
  <ellipse cx="1.5" cy="25.5" rx="1.5" ry="1.5" transform="rotate(180 1.5 25.5)" fill="#EEEEEE"/>
  <ellipse cx="13.5" cy="25.5" rx="1.5" ry="1.5" transform="rotate(180 13.5 25.5)" fill="#EEEEEE"/>
  <ellipse cx="32.5" cy="25.5" rx="1.5" ry="1.5" transform="rotate(180 32.5 25.5)" fill="#EEEEEE"/>
  <ellipse cx="13.5" cy="31.5" rx="1.5" ry="1.5" transform="rotate(180 13.5 31.5)" fill="#EEEEEE"/>
  <ellipse cx="32.5" cy="31.5" rx="1.5" ry="1.5" transform="rotate(180 32.5 31.5)" fill="#EEEEEE"/>
  <ellipse cx="7.5" cy="19.5" rx="1.5" ry="1.5" transform="rotate(180 7.5 19.5)" fill="#EEEEEE"/>
  <ellipse cx="13.5" cy="25.5" rx="1.5" ry="1.5" transform="rotate(180 13.5 25.5)" fill="#EEEEEE"/>
  <ellipse cx="26.5" cy="19.5" rx="1.5" ry="1.5" transform="rotate(180 26.5 19.5)" fill="#EEEEEE"/>
  <ellipse cx="26.5" cy="25.5" rx="1.5" ry="1.5" transform="rotate(180 26.5 25.5)" fill="#EEEEEE"/>
  <ellipse cx="38.5" cy="25.5" rx="1.5" ry="1.5" transform="rotate(180 38.5 25.5)" fill="#EEEEEE"/>
  <ellipse cx="26.5" cy="7.5" rx="1.5" ry="1.5" transform="rotate(180 26.5 7.5)" fill="#EEEEEE"/>
  <ellipse cx="26.5" cy="1.5" rx="1.5" ry="1.5" transform="rotate(180 26.5 1.5)" fill="#EEEEEE"/>
  <ellipse cx="19.5" cy="42.5" rx="1.5" ry="1.5" transform="rotate(180 19.5 42.5)" fill="#EEEEEE"/>
  <ellipse cx="13.5" cy="42.5" rx="1.5" ry="1.5" transform="rotate(180 13.5 42.5)" fill="#EEEEEE"/>
  <ellipse cx="13.5" cy="48.5" rx="1.5" ry="1.5" transform="rotate(180 13.5 48.5)" fill="#EEEEEE"/>
  <ellipse cx="19.5" cy="7.5" rx="1.5" ry="1.5" transform="rotate(180 19.5 7.5)" fill="#EEEEEE"/>
  <ellipse cx="13.5" cy="13.5" rx="1.5" ry="1.5" transform="rotate(180 13.5 13.5)" fill="#EEEEEE"/>
  <ellipse cx="26.5" cy="13.5" rx="1.5" ry="1.5" transform="rotate(180 26.5 13.5)" fill="#EEEEEE"/>
</svg>
